#!OML:ASF H:\Punching\Project 1\Capture day 1\Session 1\female.ASF
:FULLY-SPECIFIED
:DEGREES
2664
root -6.58062 15.895 11.3364 -157.745 102.446 -174.199
lowerback -4.24166 0.317985 5.18917
upperback -5.50237 0.455214 -0.126179
thorax -3.28083 0.0895256 -3.03473
lowerneck 0.0687799 13.4488 20.7652
upperneck 29.4116 28.101 -23.0645
head 17.9094 13.6968 -8.22889
rclavicle 4.34841e-015 -6.75868e-015
rhumerus -33.3041 -8.05054 -60.8087
rradius 22.3005
rwrist 14.9619
rhand -19.17 -7.86136
rfingers 7.12502
rthumb 7.14104 -37.7209
lclavicle 4.34841e-015 -6.75868e-015
lhumerus -41.6353 -0.732764 74.8273
lradius 42.4068
lwrist -14.5988
lhand -6.42363 11.4676
lfingers 7.12502
lthumb 19.4251 40.5173
rfemur -21.6056 6.08919 20.6562
rtibia 26.2285
rfoot -18.1553 -17.3871
rtoes 3.42293
lfemur -36.34 -6.05361 -21.9496
ltibia 33.1538
lfoot -15.8946 -0.0138401
ltoes -7.39768
2665
root -6.5892 15.8971 11.347 -156.765 101.064 -173.225
lowerback -4.27177 0.315295 5.1956
upperback -5.49753 0.451275 -0.15747
thorax -3.25921 0.0883599 -3.07071
lowerneck 0.112671 13.412 20.8139
upperneck 29.4007 28.0824 -23.0312
head 17.8832 13.7116 -8.22582
rclavicle -1.05853e-014 1.98785e-015
rhumerus -33.2515 -8.04291 -60.4689
rradius 22.3965
rwrist 14.4373
rhand -19.3502 -8.02942
rfingers 7.12502
rthumb 6.96706 -37.8948
lclavicle -1.05853e-014 1.98785e-015
lhumerus -41.6521 -0.578429 74.3949
lradius 42.2078
lwrist -14.462
lhand -6.60443 11.7161
lfingers 7.12502
lthumb 19.2512 40.7832
rfemur -21.3727 5.59979 20.8855
rtibia 26.0914
rfoot -18.1611 -18.1271
rtoes 3.72151
lfemur -36.3447 -5.25571 -22.1994
ltibia 33.0486
lfoot -15.8024 0.94032
ltoes -6.34753
2666
root -6.5965 15.8985 11.3568 -155.577 99.6741 -172.038
lowerback -4.29373 0.303663 5.21587
upperback -5.49355 0.435803 -0.182944
thorax -3.24423 0.0808524 -3.10866
lowerneck 0.157662 13.3714 20.8603
upperneck 29.3902 28.0621 -23.0052
head 17.8582 13.7254 -8.22689
rclavicle 3.71479e-014 3.18055e-015
rhumerus -33.2032 -7.98277 -60.1628
rradius 22.4837
rwrist 13.9531
rhand -19.5508 -8.18915
rfingers 7.12502
rthumb 6.77349 -38.0608
lclavicle 3.71479e-014 3.18055e-015
lhumerus -41.6815 -0.419306 73.9517
lradius 42.035
lwrist -14.275
lhand -6.81367 11.951
lfingers 7.12502
lthumb 19.05 41.038
rfemur -21.1279 5.10149 21.121
rtibia 25.9471
rfoot -18.2029 -18.8565
rtoes 3.97234
lfemur -36.3587 -4.49657 -22.4093
ltibia 32.9464
lfoot -15.7088 1.87144
ltoes -5.38525
2667
root -6.60308 15.8989 11.365 -154.003 98.2396 -170.454
lowerback -4.29919 0.273541 5.26264
upperback -5.49138 0.396248 -0.205736
thorax -3.24287 0.0599756 -3.15919
lowerneck 0.199729 13.3239 20.9109
upperneck 29.3873 28.035 -22.983
head 17.8379 13.7369 -8.23313
rclavicle -1.85118e-014 -9.54166e-015
rhumerus -33.1641 -7.85948 -59.8949
rradius 22.571
rwrist 13.474
rhand -19.7474 -8.355
rfingers 7.12502
rthumb 6.58368 -38.2327
lclavicle -1.85118e-014 -9.54166e-015
lhumerus -41.7158 -0.247025 73.4951
lradius 41.8793
lwrist -14.0617
lhand -7.0452 12.1751
lfingers 7.12502
lthumb 18.8273 41.2839
rfemur -20.8654 4.57993 21.3614
rtibia 25.7984
rfoot -18.2781 -19.5993
rtoes 4.21758
lfemur -36.3839 -3.84065 -22.5727
ltibia 32.8482
lfoot -15.6047 2.8253
ltoes -4.56409
